# xmcd
#
# Track frame offsets:
#	150
#	17342
#	34633
#	54074
#	71311
#	90364
#	109579
#	125615
#	139309
#	156701
#	174802
#	192900
#	208947
#	223019
#	237036
#	265641
#
# Disc length: 3556 seconds
#
# Revision: 1
# Processed by: cddbd v1.5.1PL0 Copyright (c) Steve Scherf et al.
# Submitted via: audiograbber 1.83.01
#
DISCID=d10de210
DTITLE=Chartbuster - CB60316
DYEAR=2004
DGENRE=Karaoke
TTITLE0=CB60316-01 - McComas, Brian - You're In My Head
TTITLE1=CB60316-02 - Dean, Billy - I'm In Love With You
TTITLE2=CB60316-03 - Mason, Mila - Maybe, Maybe Not
TTITLE3=CB60316-04 - Bates, Jeff - Rainbow Man
TTITLE4=CB60316-05 - Evans, Sara - Perfect
TTITLE5=CB60316-06 - Wayne, Jimmy - I Love You This Much
TTITLE6=CB60316-07 - Adkins, Trace - Hot Mama
TTITLE7=CB60316-08 - Denney, Kevin - Walk Out Of The Rain
TTITLE8=CB60316-09 - Wariner, Steve and Lee Roy Parnell - Carmelita
TTITLE9=CB60316-10 - Tennison, Chalee - Parading In The Rain
TTITLE10=CB60316-11 - Otto, James - Days Of Our Lives
TTITLE11=CB60316-12 - Drake, Dusty - Smaller Pieces
TTITLE12=CB60316-13 - Ashton, Susan - She Is
TTITLE13=CB60316-14 - Nichols, Joe - Cool To Be A Fool
TTITLE14=CB60316-15 - Montgomery, John Michael - Cool
TTITLE15=data track
EXTD=
EXTT0=
EXTT1=
EXTT2=
EXTT3=
EXTT4=
EXTT5=
EXTT6=
EXTT7=
EXTT8=
EXTT9=
EXTT10=
EXTT11=
EXTT12=
EXTT13=
EXTT14=
EXTT15=
PLAYORDER=
